<svg xmlns="http://www.w3.org/2000/svg" width="5046" height="778" viewBox="0 0 5046 778"><g fill="#F4F1E8"><g transform="translate(-43,759) scale(1,-1)"><path transform="translate(0,0)" d="M322 -19Q252 -19 199.5 5.0Q147 29 112.5 69.5Q78 110 60.5 160.0Q43 210 43 262V281Q43 335 60.5 385.5Q78 436 112.5 475.5Q147 515 198.0 538.5Q249 562 316 562Q404 562 463.5 523.5Q523 485 553.0 422.5Q583 360 583 288V238H102V323H496L453 281Q453 333 438.0 370.0Q423 407 392.5 427.0Q362 447 316 447Q270 447 238.0 426.0Q206 405 189.5 365.5Q173 326 173 271Q173 220 189.0 180.5Q205 141 238.0 118.5Q271 96 322 96Q373 96 405.0 116.5Q437 137 446 167H574Q562 111 528.0 69.0Q494 27 441.5 4.0Q389 -19 322 -19Z"/><path transform="translate(632,0)" d="M17 0 194 290 191 267 24 543H175L284 352H299L402 543H544L386 268L389 288L576 0H425L296 205H281L159 0Z"/><path transform="translate(1231,0)" d="M320 -19Q249 -19 197.5 5.0Q146 29 111.5 69.0Q77 109 60.0 159.0Q43 209 43 261V280Q43 335 60.5 385.5Q78 436 113.0 475.5Q148 515 199.5 538.5Q251 562 319 562Q390 562 446.0 534.5Q502 507 535.5 458.0Q569 409 573 344H438Q433 386 402.5 414.0Q372 442 319 442Q273 442 242.5 420.0Q212 398 197.0 359.5Q182 321 182 271Q182 223 196.5 184.0Q211 145 241.5 123.0Q272 101 320 101Q356 101 382.0 114.0Q408 127 423.5 150.0Q439 173 443 202H578Q574 136 539.5 86.5Q505 37 448.5 9.0Q392 -19 320 -19Z"/><path transform="translate(1853,0)" d="M264 -17Q170 -17 118.5 45.0Q67 107 67 229V544H206V217Q206 167 234.0 137.5Q262 108 310 108Q358 108 388.5 139.0Q419 170 419 223V544H558V0H448V231H459Q459 149 438.0 94.0Q417 39 375.0 11.0Q333 -17 270 -17Z"/><path transform="translate(2504,0)" d="M398 -18Q331 -18 280.0 10.5Q229 39 200.0 94.0Q171 149 168 227H189V0H79V730H218V365L181 308Q185 392 214.5 448.0Q244 504 294.0 532.0Q344 560 407 560Q463 560 509.0 539.0Q555 518 588.0 480.5Q621 443 638.5 393.0Q656 343 656 284V263Q656 204 638.0 153.0Q620 102 586.0 63.5Q552 25 504.5 3.5Q457 -18 398 -18ZM367 99Q412 99 445.5 121.5Q479 144 498.0 183.0Q517 222 517 273Q517 325 498.0 363.0Q479 401 445.5 422.0Q412 443 367 443Q326 443 291.5 425.0Q257 407 235.5 372.0Q214 337 214 288V248Q214 201 236.0 168.0Q258 135 293.0 117.0Q328 99 367 99Z"/><path transform="translate(3215,0)" d="M105 0V543H244V0ZM29 439V543H244V439ZM156 608Q115 608 95.5 629.5Q76 651 76 684Q76 717 95.5 738.0Q115 759 156 759Q197 759 216.0 738.0Q235 717 235 684Q235 651 216.0 629.5Q197 608 156 608Z"/><path transform="translate(3552,0)" d="M315 -7Q240 -7 191.5 12.5Q143 32 119.0 78.5Q95 125 95 204L96 696H226L225 195Q225 155 246.5 133.5Q268 112 308 112H393V-7ZM9 441V543H393V441Z"/><path transform="translate(3995,0)" d="M340 -19Q268 -19 213.0 4.0Q158 27 120.0 66.5Q82 106 62.5 156.0Q43 206 43 260V281Q43 337 63.5 387.5Q84 438 122.5 477.5Q161 517 216.0 539.5Q271 562 340 562Q409 562 464.0 539.5Q519 517 557.5 477.5Q596 438 616.0 387.5Q636 337 636 281V260Q636 206 616.5 156.0Q597 106 559.0 66.5Q521 27 466.0 4.0Q411 -19 340 -19ZM340 100Q391 100 426.0 122.5Q461 145 479.0 183.5Q497 222 497 271Q497 321 478.5 359.5Q460 398 424.5 420.5Q389 443 340 443Q291 443 255.5 420.5Q220 398 201.0 359.5Q182 321 182 271Q182 222 200.5 183.5Q219 145 254.0 122.5Q289 100 340 100Z"/><path transform="translate(4686,0)" d="M79 0V543H189V313H186Q186 430 236.0 490.0Q286 550 383 550H403V429H365Q295 429 256.5 391.5Q218 354 218 283V0Z"/></g></g></svg>
