<svg xmlns="http://www.w3.org/2000/svg" width="1280" height="640" viewBox="0 0 1280 640"><rect width="1280" height="640" fill="#F7F4EC"/><g transform="translate(256,192) scale(0.5417)"><g transform="scale(0.23923444976076555)">
<rect x="48" y="43" width="1158" height="1170" rx="116" ry="116" fill="#2E3A4E"/>
<g><path d="M0 0 C1.04365723 0.23686523 2.08731445 0.47373047 3.16259766 0.71777344 C21.76215866 5.14323799 21.76215866 5.14323799 25 10 C24.42178182 14.61824704 23.55766758 18.9257482 22.21264648 23.37939453 C21.8433754 24.61108368 21.47410431 25.84277283 21.09364319 27.11178589 C20.68622447 28.45215781 20.27870491 29.79249909 19.87109375 31.1328125 C19.44462486 32.54846216 19.01860498 33.96424715 18.59300232 35.38015747 C17.45031553 39.17718116 16.30144856 42.97230873 15.15139008 46.7671051 C13.95746529 50.71049814 12.76930434 54.65562689 11.58056641 58.60058594 C9.41609736 65.78066575 7.24680443 72.959277 5.07534409 80.13724518 C2.76340191 87.78031276 0.45745982 95.42518393 -1.84765625 103.0703125 C-4.8137912 112.90597762 -7.78265802 122.74081035 -10.75697327 132.57400513 C-12.51269801 138.38026576 -14.25921226 144.18924374 -16 150 C-16.66 150.66 -17.32 151.32 -18 152 C-24.65592935 151.45036636 -30.58224919 150.1401994 -36.9375 148.125 C-37.76701172 147.86847656 -38.59652344 147.61195313 -39.45117188 147.34765625 C-41.11661352 146.83262457 -42.78118047 146.31475523 -44.44482422 145.79394531 C-48.62004889 144.49661772 -52.8099543 143.24847854 -57 142 C-58 140 -58 140 -58 129 C-62 121 -62 121 -68 116 C-79.70621401 112.4881358 -85.07730951 112.53865476 -96 118 C-102.68740258 126.0248831 -103.3223247 130.93630662 -103 141 C-107.12475324 143.84938922 -111.22719668 144.93340665 -116.0625 145.9375 C-122.35155851 147.31418241 -128.3488514 148.99377911 -134.38671875 151.265625 C-137.3531183 152.09923205 -139.93342474 152.12571612 -143 152 C-156.05047012 138.94952988 -159.99800558 102.14761191 -165.30673218 84.32701111 C-165.98926262 82.03604092 -166.67198257 79.74512728 -167.35473633 77.45422363 C-169.69141545 69.61269731 -172.02466527 61.77017068 -174.34952736 53.9251318 C-175.32961491 50.61794277 -176.31108172 47.31118064 -177.29632568 44.00552368 C-178.39189876 40.32654015 -179.48181258 36.64592523 -180.5703125 32.96484375 C-180.89026184 31.89473053 -181.21021118 30.82461731 -181.53985596 29.72207642 C-183.36357734 23.52793035 -184.85983637 17.35642599 -186 11 C-174.11262405 -3.85921993 -137.80686531 -4.94270197 -120 -7 C-79.73242669 -11.11513609 -39.50333932 -8.97261778 0 0 Z M-166 19 C-162.84134339 33.6150034 -158.60592466 47.87180208 -154.3125 62.1875 C-153.5917013 64.6040411 -152.87132635 67.02070864 -152.15136719 69.4375 C-150.10736179 76.29360471 -148.05506532 83.14720343 -146 90 C-145.48030513 91.73388646 -144.96061104 93.46777316 -144.44091797 95.20166016 C-141.18869681 106.0480291 -141.18869681 106.0480291 -139.73950195 110.84448242 C-137.41692302 118.54249914 -135.19609727 126.26507334 -133 134 C-127.06 132.68 -121.12 131.36 -115 130 C-113.35 125.71 -111.7 121.42 -110 117 C-102.69662769 108.88514188 -97.9013602 104.3004534 -88 101 C-85.42734182 100.92970879 -82.88358569 100.90629168 -80.3125 100.9375 C-79.61060547 100.94201172 -78.90871094 100.94652344 -78.18554688 100.95117188 C-69.39626836 101.01096289 -61.3227987 104.88116254 -55 111 C-50.41299808 116.5127234 -47.95784155 122.14755456 -46 129 C-40.39 130.32 -34.78 131.64 -29 133 C-25.62410379 123.99761011 -25.62410379 123.99761011 -24.32104492 119.71289062 C-24.02562805 118.74560028 -23.73021118 117.77830994 -23.42584229 116.78170776 C-23.26985565 116.26600723 -23.26985565 116.26600723 -22.48046875 113.65625 C-22.14488953 112.55338654 -21.8093103 111.45052307 -21.46356201 110.3142395 C-20.36838936 106.71044073 -19.27759829 103.1053367 -18.1875 99.5 C-17.81505157 98.2707782 -17.44260315 97.0415564 -17.05886841 95.77508545 C-11.59919339 77.75028469 -6.22055307 59.70244856 -0.9375 41.625 C-0.7850029 41.10450073 -0.7850029 41.10450073 -0.01327515 38.47045898 C0.8394175 35.5567517 1.68813081 32.64192162 2.53515625 29.7265625 C2.78742981 28.86467316 3.03970337 28.00278381 3.29962158 27.11477661 C5 21.2313279 5 21.2313279 5 19 C-11.84544059 14.76695417 -28.74623518 11.98467268 -46 10 C-46.91104492 9.89397461 -47.82208984 9.78794922 -48.76074219 9.67871094 C-87.77879406 5.78667073 -128.0848996 9.24812694 -166 19 Z " fill="#F4F1E8" transform="translate(707,122)"/><path d="M0 0 C45.63360819 14.10493344 90.41401007 41.03578946 124 75 C122.07443365 82.7022654 114.4325932 88.75143717 109.1796875 94.5703125 C107.30854906 96.6560618 105.46075169 98.75817628 103.625 100.875 C100.17216181 104.841749 96.61122619 108.70682669 93.04956055 112.57543945 C89.91482948 115.98598806 86.84273698 119.44159116 83.80859375 122.94140625 C81.5698875 125.4895665 79.28589788 127.99410593 77 130.5 C74.13528185 133.64083556 71.28814098 136.79100756 68.5 140 C64.88082935 144.16546056 61.15654702 148.23238216 57.4375 152.30859375 C54.71055566 155.31959479 52.03228216 158.36892376 49.375 161.44140625 C48.2934584 162.66735823 47.156004 163.843996 46 165 C41 164 41 164 39.26171875 162.671875 C16.78044174 145.88767426 -7.98800634 132.42368244 -34 122 C-35.32 120.68 -36.64 119.36 -38 118 C-36.32472349 109.64097784 -33.81989303 101.5622305 -31.30859375 93.42578125 C-30.8394393 91.89635612 -30.3706202 90.36682808 -29.90211487 88.83720398 C-28.66736419 84.80861805 -27.42865144 80.78126201 -26.18890381 76.75421143 C-24.23574389 70.40735395 -22.28869572 64.05861718 -20.3412056 57.71001816 C-19.62303298 55.36960092 -18.90409696 53.02941902 -18.18515015 50.6892395 C-15.88154852 43.18469356 -13.59454097 35.67569547 -11.34814453 28.15380859 C-11.13938344 27.45509612 -10.93062235 26.75638365 -10.71553516 26.03649807 C-9.73778011 22.76131588 -8.76359734 19.48515007 -7.79380798 16.20759583 C-7.4532991 15.06296371 -7.11279022 13.9183316 -6.76196289 12.73901367 C-6.46818253 11.74584641 -6.17440216 10.75267914 -5.87171936 9.72941589 C-3.51214939 2.34143292 -3.51214939 2.34143292 0 0 Z " fill="#F4F1E8" transform="translate(743,153)"/><path d="M0 0 C5.36709333 16.51066935 10.4574702 33.082138 15.3125 49.75 C16.28501773 53.07536827 17.25870453 56.40039274 18.23249817 59.72538757 C18.88174759 61.94234103 19.53066636 64.15939135 20.179245 66.37654114 C23.23610592 76.82224237 26.33057036 87.25659758 29.4375 97.6875 C29.67473785 98.48434204 29.91197571 99.28118408 30.15640259 100.10217285 C31.43652664 104.40176947 32.71766166 108.70106315 34 113 C31.39925372 119.50186569 27.87009601 121.84237837 21.5625 124.59375 C20.51320313 125.06039062 19.46390625 125.52703125 18.3828125 126.0078125 C17.26648438 126.50023437 16.15015625 126.99265625 15 127.5 C-6.40913638 137.1794091 -25.95419806 149.29995187 -45 163 C-52.62299184 161.09425204 -58.14851313 152.96480994 -63.1875 147.09765625 C-65.25850341 144.70082688 -67.37603218 142.34999818 -69.5 140 C-72.76390848 136.38323655 -75.98790949 132.73610392 -79.1875 129.0625 C-82.03390787 125.82348414 -84.93095031 122.63036144 -87.8203125 119.4296875 C-89.69145094 117.3439382 -91.53924831 115.24182372 -93.375 113.125 C-95.80445395 110.3325242 -98.28576014 107.59488827 -100.79858398 104.87719727 C-106.88780109 98.29133809 -112.75324578 91.53465025 -118.55712891 84.69677734 C-121.02892572 81.79001121 -123.51480132 78.89530827 -126 76 C-123.81885086 67.27540345 -113.80485704 61.37049025 -107 56 C-106.39397949 55.51756836 -105.78795898 55.03513672 -105.16357422 54.53808594 C-29.08187655 -5.81637531 -29.08187655 -5.81637531 0 0 Z " fill="#F4F1E8" transform="translate(513,155)"/><path d="M0 0 C7.69140638 1.53828128 11.90345069 7.81461322 16.91796875 13.6328125 C19.56045779 16.63721842 22.27821314 19.56752389 25 22.5 C28.78651253 26.58282308 32.51767734 30.69770509 36.16015625 34.91015625 C38.56670226 37.64370638 41.03306703 40.32110702 43.5 43 C47.14419551 46.95857261 50.73913842 50.95176903 54.265625 55.015625 C57.79499465 59.05373262 61.40570631 63.01974189 65 67 C70.38128528 72.95914142 75.7341869 78.93838878 81 85 C79.3967414 93.01629298 71.30221092 99.16424776 65.0625 104.375 C47.60310766 119.37582484 33.57502958 139.53182211 21.76171875 159.1328125 C15.87892633 168.70702456 15.87892633 168.70702456 12 170 C-20.23769703 150.95418445 -20.23769703 150.95418445 -30.18237305 144.64257812 C-36.16073953 140.8614586 -42.23845089 137.24977733 -48.3125 133.625 C-58.98548315 127.25240632 -69.53052055 120.70096599 -80 114 C-80 88.26792812 -52.79700941 58.37965844 -37 39 C-36.78448486 38.73493652 -36.78448486 38.73493652 -35.69384766 37.39355469 C-24.77074419 24.03625341 -13.06008573 11.29520928 0 0 Z " fill="#F4F1E8" transform="translate(375,238)"/><path d="M0 0 C8.60580679 0 14.75095495 8.67528912 20.6875 14.5625 C24.98028498 18.90324906 29.04638512 23.35248536 33 28 C33.85851562 28.969375 34.71703125 29.93875 35.6015625 30.9375 C56.18992585 54.29944324 73.70441518 80.83435321 87 109 C82.42016399 120.44959002 59.3691788 129.81487415 48.8125 136.125 C30.76898794 146.91078654 12.85428519 157.90417958 -5 169 C-6.65 169 -8.3 169 -10 169 C-13.71420769 163.8837404 -17.22477399 158.68440121 -20.51000977 153.28442383 C-25.38959036 145.27860673 -30.69315397 137.86663991 -36.65722656 130.63525391 C-37.9112038 129.10813762 -39.14021697 127.56061719 -40.3671875 126.01171875 C-46.57382262 118.3674445 -53.42080288 111.39552239 -60.375 104.4375 C-60.86134918 103.95015381 -61.34769836 103.46280762 -61.8487854 102.96069336 C-66.40846972 98.40206659 -70.90217605 93.95986615 -76 90 C-76.33 89.01 -76.66 88.02 -77 87 C-71.20962199 79.70353883 -65.13138935 72.80213534 -58.78125 65.99609375 C-56.0450396 63.06143494 -53.39823878 60.05796386 -50.7734375 57.0234375 C-48.54861908 54.48498829 -46.27496681 51.99358224 -44 49.5 C-41.13528185 46.35916444 -38.28814098 43.20899244 -35.5 40 C-31.86813524 35.81992924 -28.13041808 31.73904685 -24.3984375 27.6484375 C-22.44762857 25.49428693 -20.52606388 23.32281531 -18.625 21.125 C-14.91188623 16.8433712 -11.04715406 12.70376202 -7.17431641 8.56689453 C-4.61390201 5.81675817 -2.17413686 3.06761776 0 0 Z " fill="#F4F1E8" transform="translate(874,238)"/><path d="M0 0 C6 5 6 5 8 9 C8 16 8 16 5 20 C4.67 21.65 4.34 23.3 4 25 C5.65 25.66 7.3 26.32 9 27 C9.66 27.99 9.66 27.99 13 33 C12.67 33.99 12.34 34.98 12 36 C0.45 36 -11.1 36 -23 36 C-23.33 34.68 -23.66 33.36 -24 32 C-20 27 -20 27 -15 25 C-17.875 18.25 -17.875 18.25 -19 16 C-19 8 -19 8 -13 1 C-8 -1 -8 -1 0 0 Z " fill="#F4F1E8" transform="translate(632,245)"/><path d="M0 0 C0.165 0.495 0.165 0.495 1 3 C0.66266846 3.54825439 0.32533691 4.09650879 -0.0222168 4.66137695 C-12.36734838 24.79165053 -12.36734838 24.79165053 -16 34 C-14.515 33.835 -14.515 33.835 -7 33 C-6.443125 31.75605469 -5.88625 30.51210938 -5.3125 29.23046875 C-0.3762047 18.39544211 4.48011827 8.51988173 13 0 C20.26 0 27.52 0 35 0 C50.56422018 23.2266055 50.56422018 23.2266055 52 35 C54.64 34.67 57.28 34.34 60 34 C50.49338088 10.99233061 50.49338088 10.99233061 45 3 C45.33 2.01 45.66 1.02 46 0 C57.47657399 0 62.51370911 2.9780847 70.6171875 10.5859375 C77.48309077 17.5418854 82.26441447 25.49321869 87 34 C89.31 34.66 91.62 35.32 94 36 C94.99 36.99 95.98 37.98 97 39 C97 40.98 97 42.96 97 45 C96.01 45.99 95.02 46.98 94 48 C48.13 48 2.26 48 -45 48 C-45.99 47.01 -46.98 46.02 -48 45 C-48 39 -48 39 -44 35 C-41.69 34.34 -39.38 33.68 -37 33 C-36.52691406 32.10539062 -36.05382812 31.21078125 -35.56640625 30.2890625 C-31.21925955 22.26587239 -26.55769166 15.44716876 -20 9 C-19.47664062 8.47792969 -18.95328125 7.95585937 -18.4140625 7.41796875 C-13.1942887 2.64519215 -6.9674047 0 0 0 Z " fill="#F4F1E8" transform="translate(602,288)"/><path d="M0 0 C4 2 4 2 8 9 C8 21 8 21 3 32 C1.88367188 32.57105469 0.76734375 33.14210938 -0.3828125 33.73046875 C-19.22525861 43.45468079 -37.3960278 53.75369839 -54 67 C-54.95648438 67.74507813 -55.91296875 68.49015625 -56.8984375 69.2578125 C-67.70622987 77.84699647 -78.25007257 87.29640706 -87 98 C-87.71800781 98.81855469 -88.43601562 99.63710938 -89.17578125 100.48046875 C-123.36634156 140.01500819 -143.51955258 190.4724399 -150 242 C-150.08530472 242.64120789 -150.17060944 243.28241577 -150.25849915 243.9430542 C-151.28163412 252.61109589 -151.22885451 261.32356501 -151.31640625 270.0390625 C-151.3370145 271.77355399 -151.35801188 273.50804089 -151.37937927 275.24252319 C-151.43420065 279.7764715 -151.48378361 284.31046208 -151.53222656 288.84448242 C-151.58273586 293.48359882 -151.63826728 298.12265491 -151.69335938 302.76171875 C-151.8004514 311.84109414 -151.90200211 320.92052221 -152 330 C-152.66 330.66 -153.32 331.32 -154 332 C-162.91 332 -171.82 332 -181 332 C-184.66539687 328.33460313 -182.08930812 310.98832763 -182.10362434 305.25404358 C-182.11392386 301.2661576 -182.12781883 297.27836157 -182.15087891 293.29052734 C-182.28339123 269.71077691 -181.83762836 246.43380449 -177.8125 223.125 C-177.59891846 221.87525391 -177.38533691 220.62550781 -177.1652832 219.33789062 C-166.31853559 158.52535599 -136.64527728 104.71639251 -93.375 61.125 C-92.51656494 60.25721924 -91.65812988 59.38943848 -90.77368164 58.49536133 C-84.8255518 52.57669731 -78.5844147 47.19742286 -72 42 C-71.33049316 41.46584473 -70.66098633 40.93168945 -69.97119141 40.38134766 C-48.85864331 23.69553216 -25.00073933 9.95827768 0 0 Z " fill="#F4F1E8" transform="translate(543,297)"/><path d="M0 0 C43.28427174 16.62161418 85.01731601 45.78615951 113.91015625 82.359375 C115.25909237 84.06382513 116.64023315 85.74349656 118.05859375 87.390625 C142.10562369 115.4528471 159.7088337 150.67162243 170 186 C170.26506348 186.90637207 170.53012695 187.81274414 170.80322266 188.74658203 C174.98829088 203.31485751 177.90960267 217.99275708 180 233 C180.08490189 233.59949715 180.08490189 233.59949715 180.51455688 236.63331604 C181.98083322 247.58475688 182.26437367 258.34191868 182.1953125 269.37890625 C182.19156975 271.17064758 182.18872877 272.962391 182.18673706 274.75413513 C182.17919976 279.40809046 182.15963987 284.0619155 182.1373291 288.71582031 C182.11665379 293.48956542 182.10768959 298.26333214 182.09765625 303.03710938 C182.03391058 330.96608942 182.03391058 330.96608942 181 332 C172.09 332 163.18 332 154 332 C153 331 153 331 152.97549438 328.36994934 C152.89675043 320.09118813 152.80923837 311.81257226 152.71247292 303.53400135 C152.66304761 299.28043017 152.61672524 295.02687764 152.578125 290.77319336 C152.23639458 253.63643525 152.23639458 253.63643525 150 237 C149.92458984 236.43317505 149.92458984 236.43317505 149.54296875 233.56469727 C149.14026681 230.82286338 148.68603091 228.10085506 148.1875 225.375 C148.01573242 224.42173828 147.84396484 223.46847656 147.66699219 222.48632812 C140.15860704 182.1640165 123.43340692 143.27098174 98 111 C97.21882812 110.00742187 96.43765625 109.01484375 95.6328125 107.9921875 C83.82977067 93.33027741 70.92604575 79.51325737 56 68 C55.44038574 67.55865723 54.88077148 67.11731445 54.30419922 66.66259766 C37.6915188 53.57613025 19.85987708 42.92062281 0.72973633 33.9387207 C-1 33 -1 33 -3 31 C-3.11237377 21.27342548 -2.92972557 11.69570954 -2 2 C-1.34 1.34 -0.68 0.68 0 0 Z " fill="#F4F1E8" transform="translate(710,297)"/><path d="M0 0 C3.3 0 6.6 0 10 0 C11.94333695 3.88667391 12.49929882 6.36763939 13.06567383 10.61230469 C13.1555551 11.27111224 13.24543636 11.9299198 13.33804131 12.60869122 C13.63458762 14.79555409 13.92085326 16.98363312 14.20703125 19.171875 C14.41443706 20.71802011 14.62244139 22.26408503 14.83100891 23.81007385 C15.38592227 27.93782035 15.93173611 32.06672123 16.47544098 36.19595718 C16.9236717 39.59239634 17.37689175 42.98816174 17.83013535 46.38393497 C20.31697371 65.01940474 22.77392282 83.65937889 25.125 102.3125 C25.22704742 103.11707642 25.32909485 103.92165283 25.43423462 104.75061035 C25.71250887 106.95438841 25.98623727 109.15866887 26.2578125 111.36328125 C26.4036377 112.54188721 26.54946289 113.72049316 26.69970703 114.93481445 C26.9658021 117.65093119 27.06064342 120.27391861 27 123 C26.67 123.33 26.34 123.66 26 124 C22.7 124 19.4 124 16 124 C12.67821496 120.67821496 13.13030558 115.53185181 12.51595879 110.96212578 C12.33279956 109.59976492 12.14962917 108.23740557 11.96644783 106.87504768 C10.85643603 98.61953401 9.74749899 90.3638779 8.64086914 82.10791016 C8.22808264 79.02896394 7.81523052 75.95002652 7.40234375 72.87109375 C7.29960459 72.10484932 7.19686543 71.33860489 7.09101295 70.54914093 C5.90948097 61.73947683 4.72108757 52.93084207 3.51501465 44.12449646 C2.94846644 39.98617009 2.38598298 35.84729681 1.82403564 31.70834351 C1.56849222 29.83518558 1.31083782 27.9623143 1.05096436 26.0897522 C0.693964 23.51626528 0.34423487 20.94188554 -0.00390625 18.3671875 C-0.05524467 18.00458076 -0.05524467 18.00458076 -0.31504822 16.16957092 C-0.99281555 11.07953937 -1.08038597 6.13524486 -1 1 C-0.67 0.67 -0.34 0.34 0 0 Z " fill="#F4F1E8" transform="translate(563,343)"/><path d="M0 0 C3.63 0 7.26 0 11 0 C20.51525834 9.51525834 17.509359 44.76487942 19 59 C19.12969177 60.23747986 19.25938354 61.47495972 19.39300537 62.74993896 C20.11535406 69.64636598 20.83362236 76.54319478 21.54556274 83.44070435 C21.76418225 85.55385075 21.98403976 87.66686946 22.20516968 89.77975464 C22.51259842 92.72001522 22.81548229 95.66070987 23.1171875 98.6015625 C23.20751755 99.45638718 23.2978476 100.31121185 23.39091492 101.19194031 C23.47186905 101.99049942 23.55282318 102.78905853 23.63623047 103.61181641 C23.7069577 104.29482819 23.77768494 104.97783997 23.85055542 105.68154907 C24.0503852 108.78166509 24 111.89345026 24 115 C34.89 115 45.78 115 57 115 C57.33 110.05 57.66 105.1 58 100 C58.28546198 96.91960002 58.58317198 93.85013889 58.92382812 90.77661133 C59.01014999 89.97439651 59.09647186 89.1721817 59.18540955 88.34565735 C59.4645579 85.7574702 59.74790786 83.1697623 60.03125 80.58203125 C60.22951609 78.74894999 60.42746714 76.91583464 60.62512207 75.08268738 C61.14163806 70.29827022 61.66152613 65.5142264 62.18243408 60.73028564 C63.01654766 53.06647642 63.84632476 45.40219888 64.67442322 37.73773766 C64.96159086 35.08564834 65.25075522 32.43378251 65.54016113 29.78193665 C66.47288688 21.19549409 67.3512709 12.61373305 68 4 C68.66 2.68 69.32 1.36 70 0 C73.96 0 77.92 0 82 0 C82.165 0.165 82.165 0.165 83 1 C82.30354992 13.46556733 80.82002199 25.82218009 79.34765625 38.21484375 C79.08471727 40.44249622 78.82189689 42.67016269 78.55918884 44.89784241 C78.01088398 49.53999558 77.45999906 54.18183405 76.9074707 58.82348633 C76.20083005 64.7629854 75.50248993 70.70342834 74.80626774 76.64415646 C74.26719299 81.23345547 73.7228456 85.82211775 73.17700005 90.41061592 C72.91722221 92.60119588 72.65928308 94.79199473 72.40324593 96.98301506 C72.04523742 100.04136065 71.67990463 103.09874735 71.31274414 106.15600586 C71.20929688 107.05326889 71.10584961 107.95053192 70.99926758 108.87498474 C69.45522638 121.54477362 69.45522638 121.54477362 67 124 C52.81 124 38.62 124 24 124 C24.33 124.66 24.66 125.32 25 126 C25 127.98 25 129.96 25 132 C46.45 132 67.9 132 90 132 C92 134 92 134 92 144 C91.34 144.66 90.68 145.32 90 146 C57 146 24 146 -10 146 C-12 143 -12 143 -12 135 C-9 132 -9 132 12 131 C11.37113369 118.44050794 10.22451873 106.02872973 8.78515625 93.5390625 C8.5667546 91.61352208 8.3487818 89.68793298 8.13121033 87.76229858 C7.5622018 82.73546403 6.98791603 77.70924732 6.41229248 72.6831665 C5.71817402 66.61462602 5.02986018 60.54542505 4.34120083 54.47626305 C3.8044271 49.74598591 3.26671245 45.01582435 2.7256012 40.28604126 C1.74460418 31.69899366 0.77936799 23.11024589 -0.14672852 14.51708984 C-0.23309791 13.73253229 -0.3194673 12.94797474 -0.40845394 12.13964272 C-0.80520372 8.41032948 -1.10167362 4.75142193 -1 1 C-0.67 0.67 -0.34 0.34 0 0 Z " fill="#F4F1E8" transform="translate(586,343)"/><path d="M0 0 C3.63 0 7.26 0 11 0 C13.55035754 10.20143015 9.34838321 23.81853969 7.95639515 34.20917892 C7.3294372 38.88939107 6.70277698 43.56964259 6.0769043 48.25 C-3.75296215 121.75296215 -3.75296215 121.75296215 -6 124 C-8.97 124 -11.94 124 -15 124 C-20.55801831 115.66297253 -13.34372447 92.40633808 -12.07046795 82.47813702 C-11.30568479 76.51401279 -10.5419025 70.54976416 -9.78051758 64.58520508 C-9.04379707 58.81417069 -8.30430389 53.04349739 -7.56299782 47.27305031 C-7.28260141 45.08671161 -7.00315439 42.9002509 -6.72473717 40.71365929 C-1.76295997 1.76295997 -1.76295997 1.76295997 0 0 Z " fill="#F4F1E8" transform="translate(680,343)"/><path d="M0 0 C0.33 0.165 0.33 0.165 2 1 C2 30.04 2 59.08 2 89 C10.91 89 19.82 89 29 89 C31 93 31 93 33 112 C32.67 112.33 32.34 112.66 32 113 C22.1 113 12.2 113 2 113 C2 140.39 2 167.78 2 196 C31.04 196 60.08 196 90 196 C90 188.41 90 180.82 90 173 C90.33 172.67 90.66 172.34 91 172 C99.58 172 108.16 172 117 172 C122.66176258 177.66176258 118 187.99305857 118 196 C146.71 196 175.42 196 205 196 C205 168.61 205 141.22 205 113 C195.43 113 185.86 113 176 113 C174.26911607 111.26911607 174.87552934 109.0216277 174.8671875 106.7109375 C175.61818182 91.38181818 175.61818182 91.38181818 178 89 C186.91 89 195.82 89 205 89 C205 59.96 205 30.92 205 1 C209.84673911 1 211.98896031 2.94418159 215.875 5.5 C216.19082031 5.70496094 216.19082031 5.70496094 217.7890625 6.7421875 C223.53641449 10.53543981 228.5489957 14.63919656 234 19 C234 42.1 234 65.2 234 89 C253.14 89 272.28 89 292 89 C295.06381815 93.90210905 297.80968085 98.37795151 300.3125 103.5 C300.82425781 104.5415625 301.33601563 105.583125 301.86328125 106.65625 C303 109 303 109 302 113 C279.56 113 257.12 113 234 113 C234 140.39 234 167.78 234 196 C262.05 196 290.1 196 319 196 C324.89726867 201.89726867 320 212.66000266 320 221 C319.67 221.33 319.34 221.66 319 222 C290.95 222 262.9 222 234 222 C234 248.73 234 275.46 234 303 C260.07 303 286.14 303 313 303 C318.89726867 308.89726867 314 319.66000266 314 328 C313.67 328.33 313.34 328.66 313 329 C286.93 329 260.86 329 234 329 C234 357.05 234 385.1 234 414 C238.95 413.67 243.9 413.34 249 413 C252.6532141 412.91636993 256.28579699 412.85877324 259.9375 412.8671875 C260.90494141 412.86623077 261.87238281 412.86527405 262.86914062 412.86428833 C264.89567124 412.86361548 266.92220414 412.8654063 268.94873047 412.86962891 C271.96717466 412.87494222 274.98546683 412.86967729 278.00390625 412.86328125 C291.69187403 412.85910707 305.330971 413.29056235 319 414 C324.89726867 419.89726867 320 430.66000266 320 439 C319.67 439.33 319.34 439.66 319 440 C290.95 440 262.9 440 234 440 C234 464.09 234 488.18 234 513 C223 527 223 527 219 530 C217.22776281 527.91784697 215.45717274 525.83433081 213.6875 523.75 C213.18798828 523.16347656 212.68847656 522.57695313 212.17382812 521.97265625 C211.93051758 521.68583984 211.93051758 521.68583984 210.69921875 520.234375 C210.25408936 519.71069336 209.80895996 519.18701172 209.3503418 518.64746094 C192.70626102 498.34114073 205 466.25589582 205 440 C176.29 440 147.58 440 118 440 C118 464.42 118 488.84 118 514 C115.03 517.3 112.06 520.6 109 524 C107.31988083 525.98871249 105.64568919 527.98270357 104 530 C98.98890121 524.98890121 94.4876067 519.48485263 90 514 C90 489.58 90 465.16 90 440 C61.29 440 32.58 440 3 440 C2.67 464.42 2.34 488.84 2 514 C-1.63 518.29 -5.26 522.58 -9 527 C-9.66 527.99 -10.32 528.98 -11 530 C-14 529 -14 529 -16.37109375 525.97265625 C-17.39319436 524.66924354 -18.41533168 523.36585961 -19.4375 522.0625 C-19.95376953 521.40314453 -20.47003906 520.74378906 -21.00195312 520.06445312 C-21.49501953 519.43603516 -21.98808594 518.80761719 -22.49609375 518.16015625 C-22.95169678 517.57886963 -23.4072998 516.99758301 -23.87670898 516.39868164 C-25 515 -25 515 -26 514 C-26 489.58 -26 465.16 -26 440 C-54.05 440 -82.1 440 -111 440 C-111.66 439.34 -112.32 438.68 -113 438 C-113 415 -113 415 -112 414 C-104.71654983 413.85340002 -97.43301566 413.71162413 -90.14941406 413.57275391 C-87.68682879 413.52528622 -85.22426232 413.47682974 -82.76171875 413.42724609 C-64.16746891 413.05383698 -45.60311616 413 -27 413 C-26.67 385.28 -26.34 357.56 -26 329 C-52.07 329 -78.14 329 -105 329 C-105.33 328.67 -105.66 328.34 -106 328 C-106 304 -106 304 -105 303 C-78.93 303 -52.86 303 -26 303 C-26 276.27 -26 249.54 -26 222 C-54.38 222 -82.76 222 -112 222 C-112.33 221.67 -112.66 221.34 -113 221 C-113 198 -113 198 -111 196 C-82.95 196 -54.9 196 -26 196 C-26 168.61 -26 141.22 -26 113 C-48.77 113 -71.54 113 -95 113 C-95.165 112.67 -95.165 112.67 -96 111 C-94.57315404 107.89082704 -93.13171297 104.78863947 -91.6875 101.6875 C-91.28337891 100.80642578 -90.87925781 99.92535156 -90.46289062 99.01757812 C-90.06650391 98.17001953 -89.67011719 97.32246094 -89.26171875 96.44921875 C-89.08104858 96.05907593 -89.08104858 96.05907593 -88.16674805 94.0847168 C-87 92 -87 92 -84 89 C-64.86 89 -45.72 89 -26 89 C-26 65.9 -26 42.8 -26 19 C-20.76651386 14.42069963 -15.94897843 10.40175259 -10.1875 6.6875 C-9.53330078 6.25888672 -8.87910156 5.83027344 -8.20507812 5.38867188 C-6.47300239 4.25459573 -4.73673836 3.12692276 -3 2 C-2.01 1.34 -1.02 0.68 0 0 Z M2 222 C2 248.73 2 275.46 2 303 C31.04 303 60.08 303 90 303 C90 276.27 90 249.54 90 222 C60.96 222 31.92 222 2 222 Z M118 222 C118 248.73 118 275.46 118 303 C146.71 303 175.42 303 205 303 C205 276.27 205 249.54 205 222 C176.29 222 147.58 222 118 222 Z M2 329 C2 357.05 2 385.1 2 414 C31.04 414 60.08 414 90 414 C90 385.95 90 357.9 90 329 C60.96 329 31.92 329 2 329 Z M118 329 C118 357.05 118 385.1 118 414 C146.71 414 175.42 414 205 414 C205 385.95 205 357.9 205 329 C176.29 329 147.58 329 118 329 Z " fill="#F4F1E8" transform="translate(523,360)"/><path d="M0 0 C5 1 5 1 7.515625 2.58984375 C28.150149 15.58163088 49.07252949 28.10823874 70.07617188 40.49194336 C91.47794653 53.12991088 91.47794653 53.12991088 95 59 C94.85433594 59.32105713 94.85433594 59.32105713 94.1171875 60.94580078 C79.53619435 93.22000377 69.64206665 125.00730875 64 160 C62 162 62 162 59.01396179 162.09455872 C54.83131889 162.0896348 50.85707847 161.346802 46.77661133 160.48706055 C46.38096481 160.40656464 46.38096481 160.40656464 44.37875366 159.99920654 C41.77843082 159.4683667 39.180258 158.92771684 36.58203125 158.38671875 C34.76001131 158.01223384 32.93788106 157.63828531 31.11564636 157.2648468 C27.29944206 156.48130805 23.48420884 155.69325498 19.66967773 154.90161133 C14.81058672 153.89326988 9.9498632 152.893096 5.08845997 151.89596844 C1.32419867 151.12346003 -2.4394675 150.34808574 -6.20293617 149.57172585 C-7.99316181 149.20247095 -9.78349236 148.8337243 -11.57393456 148.46552086 C-21.10241104 146.50307706 -30.58954778 144.48107568 -40 142 C-49.28636825 123.42726349 -31.20306521 76.08929209 -25.09765625 57.29150391 C-8.98998442 8.98998442 -8.98998442 8.98998442 0 0 Z " fill="#F4F1E8" transform="translate(288,361)"/><path d="M0 0 C21.50151818 38.91060239 41.76652217 94.3257902 39 139 C11.37714312 159.71714266 -28.18277452 155.02737619 -62 162 C-63.32 161.34 -64.64 160.68 -66 160 C-66.17539307 159.03513672 -66.35078613 158.07027344 -66.53149414 157.07617188 C-72.84397191 122.56848155 -82.16920183 90.87275236 -97 59 C-96.67 57.35 -96.34 55.7 -96 54 C-69.13529269 37.66225212 -69.13529269 37.66225212 -58 31 C-49.26287486 25.77238606 -40.55959298 20.48969279 -31.85925293 15.20120239 C-5.15394583 -1.03078917 -5.15394583 -1.03078917 0 0 Z " fill="#F4F1E8" transform="translate(968,362)"/><path d="M0 0 C19.47 0 38.94 0 59 0 C59 5.5701029 55.74961104 8.03814682 52 12 C48.3106924 14.67474801 44.19847179 16.2712175 40 18 C38.68 19.65 37.36 21.3 36 23 C31.71 23 27.42 23 23 23 C21.35 21.02 19.7 19.04 18 17 C17.3709375 16.731875 16.741875 16.46375 16.09375 16.1875 C9.44080253 13.14157224 4.84700165 9.45626163 0 4 C-0.33 3.01 -0.66 2.02 -1 1 C-0.67 0.67 -0.34 0.34 0 0 Z " fill="#F4F1E8" transform="translate(597,497)"/><path d="M0 0 C11.27665329 1.55256566 22.37679514 3.83279526 33.51953125 6.1328125 C35.47387585 6.53379665 37.42827853 6.93449781 39.38273621 7.33493042 C44.48443713 8.38095624 49.58534867 9.43078168 54.68609619 10.48144531 C59.90809096 11.55636699 65.13083584 12.62763124 70.35351562 13.69921875 C100.99017296 19.98689727 100.99017296 19.98689727 104 24 C103.96716919 24.62459106 103.96716919 24.62459106 103.80102539 27.78540039 C102.93847483 45.21923978 102.69058739 62.65065745 102.46777344 80.10150146 C102.41658428 84.05142623 102.36141887 88.00129555 102.30664062 91.95117188 C102.20065133 99.63406702 102.09888696 107.3170098 102 115 C101.67 115.33 101.34 115.66 101 116 C66.35 116 31.7 116 -4 116 C-8.42956822 109.35564768 -6.04123441 96.48053242 -6.05181217 88.37568569 C-6.05696172 84.56156132 -6.06390893 80.74746046 -6.07543945 76.93334961 C-6.27078054 10.4513009 -6.27078054 10.4513009 0 0 Z " fill="#F4F1E8" transform="translate(246,513)"/><path d="M0 0 C6.99288525 21.97895035 4.2439343 47.74387854 4.1373291 70.51849365 C4.11656928 75.43353534 4.10767213 80.34859863 4.09765625 85.26367188 C4.03410984 113.96589016 4.03410984 113.96589016 3 115 C-31.65 115 -66.3 115 -102 115 C-123.9317122 93.0682878 -104.65918404 53.01425228 -105 22 C-93.8280214 10.8280214 -58.43075004 9.84203399 -42.65356445 6.70324707 C-38.28112192 5.83291966 -33.90913788 4.96029502 -29.53710938 4.08789062 C-4.01518951 -1.00379738 -4.01518951 -1.00379738 0 0 Z " fill="#F4F1E8" transform="translate(1009,514)"/><path d="M0 0 C58.74 0 117.48 0 178 0 C182.61451241 4.61451241 181.83742558 11.61895387 182 18 C181.83242512 21.69502615 181.4952446 25.33518996 181 29 C132.72670395 65.20497203 60.34162006 32 0 32 C-1.32 30.68 -2.64 29.36 -4 28 C-4 4 -4 4 0 0 Z " fill="#F4F1E8" transform="translate(223,638)"/><path d="M0 0 C58.74 0 117.48 0 178 0 C178.99 0.99 179.98 1.98 181 3 C181 11.58 181 20.16 181 29 C132.72670395 65.20497203 60.34162006 32 0 32 C-1.32 30.68 -2.64 29.36 -4 28 C-4 4 -4 4 0 0 Z " fill="#F4F1E8" transform="translate(853,638)"/><path d="M0 0 C49.83 0 99.66 0 151 0 C152.25086204 3.75258613 151.56129517 4.03311899 149.9375 7.5 C147.77627337 11.81643312 145.38829118 15.06683561 142.11328125 18.57421875 C137.34182181 24.05125444 133.24161612 30.10929262 129 36 C121.74268554 36.76779153 114.59180119 37.1419257 107.29614258 37.11352539 C106.28991852 37.11367142 105.28369446 37.11381744 104.24697876 37.1139679 C100.96280668 37.11327825 97.67869327 37.10553081 94.39453125 37.09765625 C92.10096772 37.0957887 89.80740379 37.09436639 87.51383972 37.09336853 C81.50848265 37.08956993 75.50315016 37.07976261 69.49780273 37.06866455 C63.3572625 37.05839303 57.21671825 37.05385866 51.07617188 37.04882812 C15.01714163 37.01677216 15.01714163 37.01677216 12.60432434 34.65596008 C10.15410533 32.15716077 8.58216887 29.95487392 6.88671875 26.91796875 C6.36142578 25.98662109 5.83613281 25.05527344 5.29492188 24.09570312 C5.02969727 23.61584961 5.02969727 23.61584961 3.6875 21.1875 C3.13771484 20.20845703 2.58792969 19.22941406 2.02148438 18.22070312 C-2.00441075 11.04410747 -2.00441075 11.04410747 -1 1 C-0.67 0.67 -0.34 0.34 0 0 Z " fill="#F4F1E8" transform="translate(237,679)"/><path d="M0 0 C49.83 0 99.66 0 151 0 C154.07318149 3.07318149 152 8.65386506 152 13 C150.09056547 16.25444501 148.17285829 19.50349972 146.25 22.75 C145.71117187 23.67039062 145.17234375 24.59078125 144.6171875 25.5390625 C144.08867188 26.42851563 143.56015625 27.31796875 143.015625 28.234375 C142.77473145 28.64284668 142.77473145 28.64284668 141.55566406 30.70996094 C140 33 140 33 136 37 C26 37 26 37 21 35 C15.60242897 28.17989156 10.22059802 21.34682852 4.9375 14.4375 C4.22464844 13.50808594 3.51179687 12.57867188 2.77734375 11.62109375 C1.08764463 9.12925176 -0.01124168 6.83307437 -1 4 C-0.67 2.68 -0.34 1.36 0 0 Z " fill="#F4F1E8" transform="translate(866,679)"/><path d="M0 0 C0.66 0.33 1.32 0.66 2 1 C2 78.88 2 156.76 2 237 C1.67 237.33 1.34 237.66 1 238 C-6.92 238 -14.84 238 -23 238 C-23.33 237.67 -23.66 237.34 -24 237 C-24 167.7 -24 98.4 -24 27 C-21.69 25.02 -19.38 23.04 -17 21 C-13.90800275 18.12295443 -11.50065529 15.07221362 -9.0625 11.625 C-6.18139735 7.60222677 -3.2357348 3.74131836 0 0 Z " fill="#F4F1E8" transform="translate(388,705)"/><path d="M0 0 C4.00936388 3.77819335 7.17270443 7.79584593 10.3125 12.3125 C10.76689453 12.95767578 11.22128906 13.60285156 11.68945312 14.26757812 C15 18.97203947 15 18.97203947 15 21 C16.65 21.66 18.3 22.32 20 23 C64.56936374 78.71170468 24 165.6542067 24 237 C23.67 237.33 23.34 237.66 23 238 C15.41 238 7.82 238 0 238 C-0.33 237.67 -0.66 237.34 -1 237 C-1 1 -1 1 0 0 Z " fill="#F4F1E8" transform="translate(865,705)"/><path d="M0 0 C33.33 0 66.66 0 101 0 C152.1479336 51.1479336 102 144.66589862 102 217 C101.67 217.33 101.34 217.66 101 218 C67.67 218 34.34 218 0 218 C-0.33 217.67 -0.66 217.34 -1 217 C-1 1 -1 1 0 0 Z " fill="#F4F1E8" transform="translate(252,725)"/><path d="M0 0 C33 0 66 0 100 0 C110.8187857 16.22817855 102.04394854 64.07686926 102.05181217 83.60566044 C102.05696913 96.08110455 102.06400043 108.55654236 102.07543945 121.03198242 C102.08540459 131.9051746 102.0918578 142.7783622 102.09408849 153.65155882 C102.09539248 159.40915615 102.09845869 165.16674042 102.10573006 170.92433357 C102.1125191 176.34394306 102.11461106 181.7635341 102.11310768 187.18314743 C102.11338271 189.17171644 102.11537071 191.16028607 102.11920547 193.14885139 C102.12418774 195.86582283 102.12298154 198.5827248 102.12025452 201.29969788 C102.12316736 202.08473428 102.1260802 202.86977069 102.12908131 203.67859608 C102.09596371 215.90403629 102.09596371 215.90403629 100 218 C67 218 34 218 0 218 C-0.33 217.67 -0.66 217.34 -1 217 C-1 1 -1 1 0 0 Z " fill="#F4F1E8" transform="translate(901,725)"/><path d="M0 0 C8 9.33333333 8 9.33333333 8 19 C5 26 5 26 1 30 C-35.63 30 -72.26 30 -110 30 C-115 25 -115 25 -118 17 C-115.99704724 7.9867126 -115.99704724 7.9867126 -112.125 4.5625 C-111.76535156 4.24345703 -111.76535156 4.24345703 -109.9453125 2.62890625 C-81.83874816 -20.90610847 -36.65891265 0 0 0 Z " fill="#F4F1E8" transform="translate(353,952)"/><path d="M0 0 C0.89267578 0.00322266 1.78535156 0.00644531 2.70507812 0.00976562 C3.16946289 0.01395508 3.16946289 0.01395508 5.51953125 0.03515625 C6.45990234 0.03966797 7.40027344 0.04417969 8.36914062 0.04882812 C14.14216717 0.07813283 17.52821123 0.31507729 21.87890625 4.6328125 C27.03953781 11.18413373 26.33203125 11.15036978 26.33203125 21.09765625 C24.16671655 24.45762733 22.17170356 27.25798394 19.33203125 30.09765625 C10.09203125 30.09765625 0.85203125 30.09765625 -8.66796875 30.09765625 C-10.66796875 26.09765625 -10.66796875 26.09765625 -10.66796875 7.09765625 C-7.32030299 0.40232474 -6.72329144 -0.04282351 0 0 Z " fill="#F4F1E8" transform="translate(374.66796875,951.90234375)"/><path d="M0 0 C0.99 1.32 1.98 2.64 3 4 C2.83757813 4.8559375 2.67515625 5.711875 2.5078125 6.59375 C2.00696145 9.95330474 1.8669195 13.10618917 1.875 16.5 C1.87242187 17.5828125 1.86984375 18.665625 1.8671875 19.78125 C1.99727272 22.93390353 2.4123126 25.90298066 3 29 C-2.44160924 34.44160924 -12.31234011 30.65056091 -20 31 C-25.32771831 27.80336902 -28.02312964 24.93061109 -30 19 C-30.12985707 11.33843299 -29.93416833 11.89466933 -25 4 C-18 0 -18 0 0 0 Z " fill="#F4F1E8" transform="translate(882,952)"/><path d="M0 0 C106 0 106 0 112 4 C116.75398524 9.50461449 117.11530639 12.9663102 117 20 C114 26 114 26 109 30 C72.37 30 35.74 30 -2 30 C-8.24430801 22.71497399 -9.17044336 20.86305452 -9 12 C-6.64559941 6.50639862 -4.59144531 4.59144531 0 0 Z " fill="#F4F1E8" transform="translate(901,952)"/><path d="M0 0 C1.08954987 -0.00137466 2.17909973 -0.00274933 3.30166626 -0.00416565 C3.89939598 -0.00236801 3.89939598 -0.00236801 6.92427063 0.00672913 C7.55359497 0.00665611 7.55359497 0.00665611 10.73835754 0.00628662 C14.19056338 0.00599941 17.64273455 0.01188381 21.09493232 0.01886058 C24.70241607 0.02510681 28.30990059 0.02569892 31.91738892 0.02688599 C38.74903677 0.02999555 45.58066865 0.0382039 52.41230947 0.04823548 C60.18973792 0.05940824 67.96716713 0.06491 75.74460161 0.06993091 C123.72292926 0.10128619 123.72292926 0.10128619 128.74189758 5.12025452 C128.74189758 33.83025452 128.74189758 62.54025452 128.74189758 92.12025452 C110.57905395 110.28309815 77.42575447 94.77780309 51.74189758 95.12025452 C51.08189758 96.77025452 50.42189758 98.42025452 49.74189758 100.12025452 C48.5650993 102.24221884 47.35515684 104.34605837 46.11689758 106.43275452 C45.48525696 107.50138733 44.85361633 108.57002014 44.20283508 109.67103577 C42.74189758 112.12025452 42.74189758 112.12025452 40.74189758 113.12025452 C23.58189758 113.12025452 6.42189758 113.12025452 -11.25810242 113.12025452 C-11.58810242 112.79025452 -11.91810242 112.46025452 -12.25810242 112.12025452 C-12.25810242 6.12025452 -12.25810242 6.12025452 -8.25810242 1.12025452 C-5.21522249 0.10596121 -3.18304371 -0.00309334 0 0 Z " fill="#F4F1E8" transform="translate(235.2581024169922,991.8797454833984)"/><path d="M0 0 C32 0 32 0 37 3 C45.2043349 19.4086698 39 39.65454946 39 58 C25.28716216 69.42736486 25.28716216 69.42736486 18.125 74.8125 C13.31974985 78.43835938 8.59195136 82.10619799 4 86 C3.01 85.67 2.02 85.34 1 85 C0.8693253 74.50799794 0.7389167 64.0159926 0.60884857 53.523983 C0.54844553 48.6522175 0.48795054 43.78045317 0.42724609 38.90869141 C0.36867515 34.20788078 0.31034487 29.50706722 0.25218201 24.80625153 C0.22994065 23.01209659 0.20761232 21.21794273 0.18519592 19.42378998 C0.15383322 16.91241225 0.12277869 14.40103089 0.09179688 11.88964844 C0.08244614 11.14661972 0.0730954 10.403591 0.0634613 9.63804626 C0.02411059 6.42492296 0 3.21344754 0 0 Z " fill="#F4F1E8" transform="translate(372,992)"/><path d="M0 0 C1 3 1 3 0 6 C-0.11955881 8.5389383 -0.18523964 11.05257824 -0.20532227 13.5925293 C-0.21522186 14.36349945 -0.22512146 15.1344696 -0.23532104 15.92880249 C-0.26690956 18.47724333 -0.291683 21.02570282 -0.31640625 23.57421875 C-0.33697806 25.3411355 -0.3579746 27.10804736 -0.37937927 28.87495422 C-0.43457645 33.52572667 -0.48399612 38.17654336 -0.53222656 42.82739258 C-0.58245876 47.57311949 -0.63813586 52.31878214 -0.69335938 57.06445312 C-0.80091216 66.37624719 -0.90236356 75.68809705 -1 85 C-1.33 85.165 -1.33 85.165 -3 86 C-29.40101523 66.59898477 -29.40101523 66.59898477 -38 58 C-38 40.51 -38 23.02 -38 5 C-32 0 -32 0 0 0 Z " fill="#F4F1E8" transform="translate(881,992)"/><path d="M0 0 C5 3 5 3 7 7 C7 41.65 7 76.3 7 112 C6.67 112.33 6.34 112.66 6 113 C-11.49 113 -28.98 113 -47 113 C-53.75 104 -53.75 104 -55.875 100 C-56.28492188 99.236875 -56.69484375 98.47375 -57.1171875 97.6875 C-57.40851563 97.130625 -57.69984375 96.57375 -58 96 C-80.07059381 84.9647031 -107.32670561 94.34268464 -132 94 C-132.99 93.34 -133.98 92.68 -135 92 C-135 6 -135 6 -131 1 C-91.94220806 -18.52889597 -43.66793891 0 0 0 Z " fill="#F4F1E8" transform="translate(1024,992)"/><path d="M0 0 C5.28 4.29 10.56 8.58 16 13 C23.3125 18.75 23.3125 18.75 26.71484375 21.41015625 C31.53909762 25.19665951 36.27301195 29.09299967 41 33 C41 33.99 41 34.98 41 36 C-121.69 36 -284.38 36 -452 36 C-452 35.01 -452 34.02 -452 33 C-443.47943982 26.11657802 -434.89725457 19.33069385 -426.16430664 12.71801758 C-312.95185207 -73.1916413 -142.11801208 0 0 0 Z " fill="#F4F1E8" transform="translate(832,1054)"/><path d="M0 0 C11.24716553 5.62358277 11.24716553 5.62358277 15.015625 8.05859375 C15.86431152 8.60306152 16.71299805 9.1475293 17.58740234 9.70849609 C18.02673096 9.99378174 18.02673096 9.99378174 20.25 11.4375 C22.16396568 12.66811935 24.07803139 13.89858313 25.9921875 15.12890625 C26.48187012 15.44480713 26.48187012 15.44480713 28.95996094 17.04345703 C34.08484166 20.34178614 39.23094963 23.60668303 44.375 26.875 C46.23707536 28.05974467 48.09906361 29.24462625 49.9609375 30.4296875 C50.74259277 30.92710449 51.52424805 31.42452148 52.32958984 31.93701172 C52.8808252 32.28779785 53.43206055 32.63858398 54 33 C53.67 33.66 53.34 34.32 53 35 C-158.2 35 -369.4 35 -587 35 C-587 34.01 -587 33.02 -587 32 C-577.0482303 25.68521552 -567.07722138 19.40205345 -557.0625 13.1875 C-556.64955688 12.93053345 -556.64955688 12.93053345 -554.55981445 11.63012695 C-397.36424909 -85.71110316 -184.89391783 0 0 0 Z " fill="#F4F1E8" transform="translate(894,1098)"/></g>
<g><path d="M0 0 C-2.99325986 12.59742785 -6.57935513 24.97918354 -10.3125 37.375 C-10.92115967 39.403893 -11.52955244 41.43286609 -12.13769531 43.46191406 C-13.09253291 46.64675047 -14.04788823 49.83142684 -15.00485229 53.015625 C-17.06113265 59.85879539 -19.10379834 66.70586954 -21.13615417 73.55618286 C-22.50564867 78.1712267 -23.8791884 82.78506143 -25.25326538 87.39874268 C-25.91620761 89.62771112 -26.5775315 91.85716155 -27.23721313 94.08709717 C-28.15864634 97.20011268 -29.08638076 100.31118369 -30.015625 103.421875 C-30.28898178 104.35091644 -30.56233856 105.27995789 -30.84397888 106.2371521 C-31.09945999 107.0879837 -31.3549411 107.93881531 -31.61816406 108.81542969 C-31.72806671 109.18534027 -31.72806671 109.18534027 -32.28424072 111.05731201 C-33 113 -33 113 -35 116 C-41.35450323 114.75297849 -47.68327435 113.42635741 -54 112 C-54.14695312 111.46632813 -54.29390625 110.93265625 -54.4453125 110.3828125 C-57.69192375 99.59809238 -62.45657177 92.77899429 -72 87 C-80.86192318 83.02741375 -90.05830887 82.28413503 -99.5 85.5625 C-110.21630863 89.79101495 -114.47790014 97.17158273 -119 107.22265625 C-119.67808058 108.8102776 -120.34094277 110.40438777 -121 112 C-127.28643343 113.85735533 -133.63583076 115.43247063 -140 117 C-143.31959771 112.28571235 -144.56779213 107.17573544 -146.08984375 101.6953125 C-146.70839605 99.52215421 -147.32808484 97.34931918 -147.94873047 95.17675781 C-148.11392181 94.59589417 -148.11392181 94.59589417 -148.94989014 91.65637207 C-150.60078018 85.90814661 -152.3127179 80.17837401 -154.02565384 74.44841766 C-154.83864484 71.72781608 -155.64902079 69.006438 -156.45953941 66.28509903 C-157.90925979 61.41787024 -159.36028653 56.55103389 -160.81420898 51.68505859 C-175.41109239 2.82218479 -175.41109239 2.82218479 -173 -2 C-156.06486791 -5.86397733 -139.28468779 -9.18003191 -122 -11 C-121.61650391 -11.04713135 -121.61650391 -11.04713135 -119.67578125 -11.28564453 C-86.08824957 -15.0109283 -30.03131366 -18.0187882 0 0 Z " fill="#E0A94A" transform="translate(714,141)"/><path d="M0 0 C1.98 1.32 3.96 2.64 6 4 C11.28 4.33 16.56 4.66 22 5 C23.12500317 10.62501585 23.12500317 10.62501585 22.74734497 14.04011536 C22.66602325 14.80952957 22.58470154 15.57894379 22.50091553 16.37167358 C22.40538391 17.20139679 22.30985229 18.03112 22.21142578 18.88598633 C22.1156424 19.77119461 22.01985901 20.65640289 21.9211731 21.56843567 C21.60314964 24.49048177 21.27430593 27.41120162 20.9453125 30.33203125 C20.72142796 32.36831158 20.49820148 34.40466436 20.27560425 36.44108582 C19.68762965 41.80306321 19.09039625 47.16397098 18.49133301 52.52471924 C17.88551938 57.96180063 17.28899818 63.39990063 16.69140625 68.83789062 C15.81463337 76.80104665 14.93512972 84.76389154 14.04736328 92.72583008 C13.95588013 93.54948059 13.86439697 94.3731311 13.7701416 95.22174072 C12.1328808 109.8671192 12.1328808 109.8671192 11 111 C-0.55 111 -12.1 111 -24 111 C-29.57047317 105.42952683 -28.07821427 80.80789102 -28.91151428 72.86396027 C-29.51466101 67.11545305 -30.11933645 61.3671153 -30.72753906 55.61914062 C-31.31471922 50.06930139 -31.89783989 44.51904912 -32.47817993 38.9684906 C-32.70000482 36.85372288 -32.9232779 34.73910653 -33.14804077 32.62464905 C-33.46323701 29.65705807 -33.77322262 26.68896466 -34.08203125 23.72070312 C-34.17553864 22.85179443 -34.26904602 21.98288574 -34.36538696 21.08764648 C-34.88539973 16.02755812 -35.08603121 11.0870074 -35 6 C-30.93114813 1.93114813 -23.70979066 3.71372383 -18 3 C-13 0 -13 0 0 0 Z " fill="#E0A94A" transform="translate(633,349)"/></g>
</g><g transform="translate(345.0,69.0) scale(0.2054794520547945)"><g fill="#2E3A4E"><g transform="translate(-43,759) scale(1,-1)"><path transform="translate(0,0)" d="M322 -19Q252 -19 199.5 5.0Q147 29 112.5 69.5Q78 110 60.5 160.0Q43 210 43 262V281Q43 335 60.5 385.5Q78 436 112.5 475.5Q147 515 198.0 538.5Q249 562 316 562Q404 562 463.5 523.5Q523 485 553.0 422.5Q583 360 583 288V238H102V323H496L453 281Q453 333 438.0 370.0Q423 407 392.5 427.0Q362 447 316 447Q270 447 238.0 426.0Q206 405 189.5 365.5Q173 326 173 271Q173 220 189.0 180.5Q205 141 238.0 118.5Q271 96 322 96Q373 96 405.0 116.5Q437 137 446 167H574Q562 111 528.0 69.0Q494 27 441.5 4.0Q389 -19 322 -19Z"/><path transform="translate(632,0)" d="M17 0 194 290 191 267 24 543H175L284 352H299L402 543H544L386 268L389 288L576 0H425L296 205H281L159 0Z"/><path transform="translate(1231,0)" d="M320 -19Q249 -19 197.5 5.0Q146 29 111.5 69.0Q77 109 60.0 159.0Q43 209 43 261V280Q43 335 60.5 385.5Q78 436 113.0 475.5Q148 515 199.5 538.5Q251 562 319 562Q390 562 446.0 534.5Q502 507 535.5 458.0Q569 409 573 344H438Q433 386 402.5 414.0Q372 442 319 442Q273 442 242.5 420.0Q212 398 197.0 359.5Q182 321 182 271Q182 223 196.5 184.0Q211 145 241.5 123.0Q272 101 320 101Q356 101 382.0 114.0Q408 127 423.5 150.0Q439 173 443 202H578Q574 136 539.5 86.5Q505 37 448.5 9.0Q392 -19 320 -19Z"/><path transform="translate(1853,0)" d="M264 -17Q170 -17 118.5 45.0Q67 107 67 229V544H206V217Q206 167 234.0 137.5Q262 108 310 108Q358 108 388.5 139.0Q419 170 419 223V544H558V0H448V231H459Q459 149 438.0 94.0Q417 39 375.0 11.0Q333 -17 270 -17Z"/><path transform="translate(2504,0)" d="M398 -18Q331 -18 280.0 10.5Q229 39 200.0 94.0Q171 149 168 227H189V0H79V730H218V365L181 308Q185 392 214.5 448.0Q244 504 294.0 532.0Q344 560 407 560Q463 560 509.0 539.0Q555 518 588.0 480.5Q621 443 638.5 393.0Q656 343 656 284V263Q656 204 638.0 153.0Q620 102 586.0 63.5Q552 25 504.5 3.5Q457 -18 398 -18ZM367 99Q412 99 445.5 121.5Q479 144 498.0 183.0Q517 222 517 273Q517 325 498.0 363.0Q479 401 445.5 422.0Q412 443 367 443Q326 443 291.5 425.0Q257 407 235.5 372.0Q214 337 214 288V248Q214 201 236.0 168.0Q258 135 293.0 117.0Q328 99 367 99Z"/><path transform="translate(3215,0)" d="M105 0V543H244V0ZM29 439V543H244V439ZM156 608Q115 608 95.5 629.5Q76 651 76 684Q76 717 95.5 738.0Q115 759 156 759Q197 759 216.0 738.0Q235 717 235 684Q235 651 216.0 629.5Q197 608 156 608Z"/><path transform="translate(3552,0)" d="M315 -7Q240 -7 191.5 12.5Q143 32 119.0 78.5Q95 125 95 204L96 696H226L225 195Q225 155 246.5 133.5Q268 112 308 112H393V-7ZM9 441V543H393V441Z"/><path transform="translate(3995,0)" d="M340 -19Q268 -19 213.0 4.0Q158 27 120.0 66.5Q82 106 62.5 156.0Q43 206 43 260V281Q43 337 63.5 387.5Q84 438 122.5 477.5Q161 517 216.0 539.5Q271 562 340 562Q409 562 464.0 539.5Q519 517 557.5 477.5Q596 438 616.0 387.5Q636 337 636 281V260Q636 206 616.5 156.0Q597 106 559.0 66.5Q521 27 466.0 4.0Q411 -19 340 -19ZM340 100Q391 100 426.0 122.5Q461 145 479.0 183.5Q497 222 497 271Q497 321 478.5 359.5Q460 398 424.5 420.5Q389 443 340 443Q291 443 255.5 420.5Q220 398 201.0 359.5Q182 321 182 271Q182 222 200.5 183.5Q219 145 254.0 122.5Q289 100 340 100Z"/><path transform="translate(4686,0)" d="M79 0V543H189V313H186Q186 430 236.0 490.0Q286 550 383 550H403V429H365Q295 429 256.5 391.5Q218 354 218 283V0Z"/></g></g></g></g><g transform="translate(105,400) scale(0.0466)"><g fill="#2E3A4E" opacity="0.82"><g transform="translate(-34,759) scale(1,-1)"><path transform="translate(0,0)" d="M276 -17Q164 -17 100.5 30.5Q37 78 34 162H159Q162 134 190.0 111.0Q218 88 278 88Q328 88 357.5 106.0Q387 124 387 155Q387 182 364.5 198.0Q342 214 288 219L240 224Q149 234 100.0 276.0Q51 318 51 388Q51 444 79.0 482.0Q107 520 156.5 539.5Q206 559 270 559Q370 559 432.0 515.0Q494 471 497 386H372Q370 414 344.0 434.0Q318 454 269 454Q225 454 201.0 437.0Q177 420 177 393Q177 367 196.5 353.0Q216 339 260 334L308 329Q404 319 458.5 276.0Q513 233 513 160Q513 106 483.5 66.5Q454 27 401.0 5.0Q348 -17 276 -17Z"/><path transform="translate(555,0)" d="M408 0V161H385V340Q385 387 362.0 410.0Q339 433 291 433Q266 433 231.0 432.0Q196 431 160.5 429.5Q125 428 97 426V544Q120 546 149.0 548.0Q178 550 208.5 550.5Q239 551 266 551Q350 551 405.5 529.0Q461 507 489.5 460.0Q518 413 518 337V0ZM233 -14Q174 -14 129.5 7.0Q85 28 60.5 67.0Q36 106 36 161Q36 221 65.5 259.0Q95 297 148.5 316.0Q202 335 274 335H400V252H272Q224 252 198.5 228.5Q173 205 173 168Q173 131 198.5 108.0Q224 85 272 85Q301 85 325.5 95.5Q350 106 366.5 131.5Q383 157 385 201L419 162Q414 105 391.5 66.0Q369 27 329.5 6.5Q290 -14 233 -14Z"/><path transform="translate(1149,0)" d="M92 0V556Q92 649 143.5 693.5Q195 738 296 738H364V631H286Q255 631 238.5 614.5Q222 598 222 568V0ZM24 432V534H373V432Z"/><path transform="translate(1536,0)" d="M322 -19Q252 -19 199.5 5.0Q147 29 112.5 69.5Q78 110 60.5 160.0Q43 210 43 262V281Q43 335 60.5 385.5Q78 436 112.5 475.5Q147 515 198.0 538.5Q249 562 316 562Q404 562 463.5 523.5Q523 485 553.0 422.5Q583 360 583 288V238H102V323H496L453 281Q453 333 438.0 370.0Q423 407 392.5 427.0Q362 447 316 447Q270 447 238.0 426.0Q206 405 189.5 365.5Q173 326 173 271Q173 220 189.0 180.5Q205 141 238.0 118.5Q271 96 322 96Q373 96 405.0 116.5Q437 137 446 167H574Q562 111 528.0 69.0Q494 27 441.5 4.0Q389 -19 322 -19Z"/><path transform="translate(2162,0)" d="M315 -7Q240 -7 191.5 12.5Q143 32 119.0 78.5Q95 125 95 204L96 696H226L225 195Q225 155 246.5 133.5Q268 112 308 112H393V-7ZM9 441V543H393V441Z"/><path transform="translate(2599,0)" d="M63 -214V-95H165Q194 -95 213.5 -87.5Q233 -80 246.0 -63.5Q259 -47 266 -18L412 543H545L384 -48Q368 -109 339.0 -145.5Q310 -182 264.5 -198.0Q219 -214 152 -214ZM232 12V122H348V12ZM185 12 9 543H149L316 12Z"/><path transform="translate(3389,0)" d="M92 0V556Q92 649 143.5 693.5Q195 738 296 738H364V631H286Q255 631 238.5 614.5Q222 598 222 568V0ZM24 432V534H373V432Z"/><path transform="translate(3776,0)" d="M322 -19Q252 -19 199.5 5.0Q147 29 112.5 69.5Q78 110 60.5 160.0Q43 210 43 262V281Q43 335 60.5 385.5Q78 436 112.5 475.5Q147 515 198.0 538.5Q249 562 316 562Q404 562 463.5 523.5Q523 485 553.0 422.5Q583 360 583 288V238H102V323H496L453 281Q453 333 438.0 370.0Q423 407 392.5 427.0Q362 447 316 447Q270 447 238.0 426.0Q206 405 189.5 365.5Q173 326 173 271Q173 220 189.0 180.5Q205 141 238.0 118.5Q271 96 322 96Q373 96 405.0 116.5Q437 137 446 167H574Q562 111 528.0 69.0Q494 27 441.5 4.0Q389 -19 322 -19Z"/><path transform="translate(4402,0)" d="M79 0V543H189V310H179Q179 393 201.0 448.5Q223 504 266.5 532.0Q310 560 375 560H381Q478 560 528.0 497.5Q578 435 578 311V0H439V323Q439 373 410.5 404.0Q382 435 332 435Q281 435 249.5 403.5Q218 372 218 319V0Z"/><path transform="translate(5056,0)" d="M320 -19Q249 -19 197.5 5.0Q146 29 111.5 69.0Q77 109 60.0 159.0Q43 209 43 261V280Q43 335 60.5 385.5Q78 436 113.0 475.5Q148 515 199.5 538.5Q251 562 319 562Q390 562 446.0 534.5Q502 507 535.5 458.0Q569 409 573 344H438Q433 386 402.5 414.0Q372 442 319 442Q273 442 242.5 420.0Q212 398 197.0 359.5Q182 321 182 271Q182 223 196.5 184.0Q211 145 241.5 123.0Q272 101 320 101Q356 101 382.0 114.0Q408 127 423.5 150.0Q439 173 443 202H578Q574 136 539.5 86.5Q505 37 448.5 9.0Q392 -19 320 -19Z"/><path transform="translate(5672,0)" d="M322 -19Q252 -19 199.5 5.0Q147 29 112.5 69.5Q78 110 60.5 160.0Q43 210 43 262V281Q43 335 60.5 385.5Q78 436 112.5 475.5Q147 515 198.0 538.5Q249 562 316 562Q404 562 463.5 523.5Q523 485 553.0 422.5Q583 360 583 288V238H102V323H496L453 281Q453 333 438.0 370.0Q423 407 392.5 427.0Q362 447 316 447Q270 447 238.0 426.0Q206 405 189.5 365.5Q173 326 173 271Q173 220 189.0 180.5Q205 141 238.0 118.5Q271 96 322 96Q373 96 405.0 116.5Q437 137 446 167H574Q562 111 528.0 69.0Q494 27 441.5 4.0Q389 -19 322 -19Z"/><path transform="translate(6298,0)" d="M276 -17Q164 -17 100.5 30.5Q37 78 34 162H159Q162 134 190.0 111.0Q218 88 278 88Q328 88 357.5 106.0Q387 124 387 155Q387 182 364.5 198.0Q342 214 288 219L240 224Q149 234 100.0 276.0Q51 318 51 388Q51 444 79.0 482.0Q107 520 156.5 539.5Q206 559 270 559Q370 559 432.0 515.0Q494 471 497 386H372Q370 414 344.0 434.0Q318 454 269 454Q225 454 201.0 437.0Q177 420 177 393Q177 367 196.5 353.0Q216 339 260 334L308 329Q404 319 458.5 276.0Q513 233 513 160Q513 106 483.5 66.5Q454 27 401.0 5.0Q348 -17 276 -17Z"/><path transform="translate(7075,0)" d="M92 0V556Q92 649 143.5 693.5Q195 738 296 738H364V631H286Q255 631 238.5 614.5Q222 598 222 568V0ZM24 432V534H373V432Z"/><path transform="translate(7462,0)" d="M340 -19Q268 -19 213.0 4.0Q158 27 120.0 66.5Q82 106 62.5 156.0Q43 206 43 260V281Q43 337 63.5 387.5Q84 438 122.5 477.5Q161 517 216.0 539.5Q271 562 340 562Q409 562 464.0 539.5Q519 517 557.5 477.5Q596 438 616.0 387.5Q636 337 636 281V260Q636 206 616.5 156.0Q597 106 559.0 66.5Q521 27 466.0 4.0Q411 -19 340 -19ZM340 100Q391 100 426.0 122.5Q461 145 479.0 183.5Q497 222 497 271Q497 321 478.5 359.5Q460 398 424.5 420.5Q389 443 340 443Q291 443 255.5 420.5Q220 398 201.0 359.5Q182 321 182 271Q182 222 200.5 183.5Q219 145 254.0 122.5Q289 100 340 100Z"/><path transform="translate(8147,0)" d="M79 0V543H189V313H186Q186 430 236.0 490.0Q286 550 383 550H403V429H365Q295 429 256.5 391.5Q218 354 218 283V0Z"/><path transform="translate(8792,0)" d="M408 0V161H385V340Q385 387 362.0 410.0Q339 433 291 433Q266 433 231.0 432.0Q196 431 160.5 429.5Q125 428 97 426V544Q120 546 149.0 548.0Q178 550 208.5 550.5Q239 551 266 551Q350 551 405.5 529.0Q461 507 489.5 460.0Q518 413 518 337V0ZM233 -14Q174 -14 129.5 7.0Q85 28 60.5 67.0Q36 106 36 161Q36 221 65.5 259.0Q95 297 148.5 316.0Q202 335 274 335H400V252H272Q224 252 198.5 228.5Q173 205 173 168Q173 131 198.5 108.0Q224 85 272 85Q301 85 325.5 95.5Q350 106 366.5 131.5Q383 157 385 201L419 162Q414 105 391.5 66.0Q369 27 329.5 6.5Q290 -14 233 -14Z"/><path transform="translate(9386,0)" d="M264 -17Q170 -17 118.5 45.0Q67 107 67 229V544H206V217Q206 167 234.0 137.5Q262 108 310 108Q358 108 388.5 139.0Q419 170 419 223V544H558V0H448V231H459Q459 149 438.0 94.0Q417 39 375.0 11.0Q333 -17 270 -17Z"/><path transform="translate(10031,0)" d="M315 -7Q240 -7 191.5 12.5Q143 32 119.0 78.5Q95 125 95 204L96 696H226L225 195Q225 155 246.5 133.5Q268 112 308 112H393V-7ZM9 441V543H393V441Z"/><path transform="translate(10468,0)" d="M340 -19Q268 -19 213.0 4.0Q158 27 120.0 66.5Q82 106 62.5 156.0Q43 206 43 260V281Q43 337 63.5 387.5Q84 438 122.5 477.5Q161 517 216.0 539.5Q271 562 340 562Q409 562 464.0 539.5Q519 517 557.5 477.5Q596 438 616.0 387.5Q636 337 636 281V260Q636 206 616.5 156.0Q597 106 559.0 66.5Q521 27 466.0 4.0Q411 -19 340 -19ZM340 100Q391 100 426.0 122.5Q461 145 479.0 183.5Q497 222 497 271Q497 321 478.5 359.5Q460 398 424.5 420.5Q389 443 340 443Q291 443 255.5 420.5Q220 398 201.0 359.5Q182 321 182 271Q182 222 200.5 183.5Q219 145 254.0 122.5Q289 100 340 100Z"/><path transform="translate(11153,0)" d="M79 0V543H189V310H179Q179 393 201.0 448.5Q223 504 266.5 532.0Q310 560 375 560H381Q478 560 528.0 497.5Q578 435 578 311V0H439V323Q439 373 410.5 404.0Q382 435 332 435Q281 435 249.5 403.5Q218 372 218 319V0Z"/><path transform="translate(11807,0)" d="M340 -19Q268 -19 213.0 4.0Q158 27 120.0 66.5Q82 106 62.5 156.0Q43 206 43 260V281Q43 337 63.5 387.5Q84 438 122.5 477.5Q161 517 216.0 539.5Q271 562 340 562Q409 562 464.0 539.5Q519 517 557.5 477.5Q596 438 616.0 387.5Q636 337 636 281V260Q636 206 616.5 156.0Q597 106 559.0 66.5Q521 27 466.0 4.0Q411 -19 340 -19ZM340 100Q391 100 426.0 122.5Q461 145 479.0 183.5Q497 222 497 271Q497 321 478.5 359.5Q460 398 424.5 420.5Q389 443 340 443Q291 443 255.5 420.5Q220 398 201.0 359.5Q182 321 182 271Q182 222 200.5 183.5Q219 145 254.0 122.5Q289 100 340 100Z"/><path transform="translate(12492,0)" d="M79 0V543H189V310H179Q179 392 200.0 447.5Q221 503 262.5 531.5Q304 560 366 560H372Q435 560 476.5 531.5Q518 503 538.5 447.5Q559 392 559 310H524Q524 392 545.5 447.5Q567 503 608.5 531.5Q650 560 712 560H718Q781 560 823.0 531.5Q865 503 886.5 447.5Q908 392 908 310V0H769V323Q769 374 743.0 404.5Q717 435 669 435Q621 435 592.0 403.5Q563 372 563 319V0H424V323Q424 374 398.0 404.5Q372 435 324 435Q276 435 247.0 403.5Q218 372 218 319V0Z"/><path transform="translate(13476,0)" d="M340 -19Q268 -19 213.0 4.0Q158 27 120.0 66.5Q82 106 62.5 156.0Q43 206 43 260V281Q43 337 63.5 387.5Q84 438 122.5 477.5Q161 517 216.0 539.5Q271 562 340 562Q409 562 464.0 539.5Q519 517 557.5 477.5Q596 438 616.0 387.5Q636 337 636 281V260Q636 206 616.5 156.0Q597 106 559.0 66.5Q521 27 466.0 4.0Q411 -19 340 -19ZM340 100Q391 100 426.0 122.5Q461 145 479.0 183.5Q497 222 497 271Q497 321 478.5 359.5Q460 398 424.5 420.5Q389 443 340 443Q291 443 255.5 420.5Q220 398 201.0 359.5Q182 321 182 271Q182 222 200.5 183.5Q219 145 254.0 122.5Q289 100 340 100Z"/><path transform="translate(14161,0)" d="M264 -17Q170 -17 118.5 45.0Q67 107 67 229V544H206V217Q206 167 234.0 137.5Q262 108 310 108Q358 108 388.5 139.0Q419 170 419 223V544H558V0H448V231H459Q459 149 438.0 94.0Q417 39 375.0 11.0Q333 -17 270 -17Z"/><path transform="translate(14806,0)" d="M276 -17Q164 -17 100.5 30.5Q37 78 34 162H159Q162 134 190.0 111.0Q218 88 278 88Q328 88 357.5 106.0Q387 124 387 155Q387 182 364.5 198.0Q342 214 288 219L240 224Q149 234 100.0 276.0Q51 318 51 388Q51 444 79.0 482.0Q107 520 156.5 539.5Q206 559 270 559Q370 559 432.0 515.0Q494 471 497 386H372Q370 414 344.0 434.0Q318 454 269 454Q225 454 201.0 437.0Q177 420 177 393Q177 367 196.5 353.0Q216 339 260 334L308 329Q404 319 458.5 276.0Q513 233 513 160Q513 106 483.5 66.5Q454 27 401.0 5.0Q348 -17 276 -17Z"/><path transform="translate(15583,0)" d="M320 -19Q249 -19 197.5 5.0Q146 29 111.5 69.0Q77 109 60.0 159.0Q43 209 43 261V280Q43 335 60.5 385.5Q78 436 113.0 475.5Q148 515 199.5 538.5Q251 562 319 562Q390 562 446.0 534.5Q502 507 535.5 458.0Q569 409 573 344H438Q433 386 402.5 414.0Q372 442 319 442Q273 442 242.5 420.0Q212 398 197.0 359.5Q182 321 182 271Q182 223 196.5 184.0Q211 145 241.5 123.0Q272 101 320 101Q356 101 382.0 114.0Q408 127 423.5 150.0Q439 173 443 202H578Q574 136 539.5 86.5Q505 37 448.5 9.0Q392 -19 320 -19Z"/><path transform="translate(16199,0)" d="M340 -19Q268 -19 213.0 4.0Q158 27 120.0 66.5Q82 106 62.5 156.0Q43 206 43 260V281Q43 337 63.5 387.5Q84 438 122.5 477.5Q161 517 216.0 539.5Q271 562 340 562Q409 562 464.0 539.5Q519 517 557.5 477.5Q596 438 616.0 387.5Q636 337 636 281V260Q636 206 616.5 156.0Q597 106 559.0 66.5Q521 27 466.0 4.0Q411 -19 340 -19ZM340 100Q391 100 426.0 122.5Q461 145 479.0 183.5Q497 222 497 271Q497 321 478.5 359.5Q460 398 424.5 420.5Q389 443 340 443Q291 443 255.5 420.5Q220 398 201.0 359.5Q182 321 182 271Q182 222 200.5 183.5Q219 145 254.0 122.5Q289 100 340 100Z"/><path transform="translate(16884,0)" d="M304 -18Q247 -18 199.0 3.0Q151 24 116.0 62.0Q81 100 62.0 150.5Q43 201 43 260V281Q43 339 61.5 390.0Q80 441 113.5 479.0Q147 517 194.5 538.5Q242 560 300 560Q364 560 412.5 532.5Q461 505 490.0 450.0Q519 395 522 312L481 360V730H620V0H510V231H534Q531 148 500.0 92.5Q469 37 418.5 9.5Q368 -18 304 -18ZM335 99Q376 99 410.0 117.5Q444 136 464.5 171.5Q485 207 485 255V295Q485 343 464.0 375.5Q443 408 409.0 425.5Q375 443 335 443Q290 443 255.5 421.5Q221 400 201.5 361.0Q182 322 182 270Q182 218 202.0 179.5Q222 141 256.5 120.0Q291 99 335 99Z"/><path transform="translate(17589,0)" d="M105 0V543H244V0ZM29 439V543H244V439ZM156 608Q115 608 95.5 629.5Q76 651 76 684Q76 717 95.5 738.0Q115 759 156 759Q197 759 216.0 738.0Q235 717 235 684Q235 651 216.0 629.5Q197 608 156 608Z"/><path transform="translate(17920,0)" d="M79 0V543H189V310H179Q179 393 201.0 448.5Q223 504 266.5 532.0Q310 560 375 560H381Q478 560 528.0 497.5Q578 435 578 311V0H439V323Q439 373 410.5 404.0Q382 435 332 435Q281 435 249.5 403.5Q218 372 218 319V0Z"/><path transform="translate(18574,0)" d="M291 -214Q252 -214 211.5 -211.0Q171 -208 136 -203V-87Q172 -91 213.0 -94.5Q254 -98 290 -98Q357 -98 398.5 -82.0Q440 -66 459.5 -31.5Q479 3 479 56V163L509 231Q506 156 478.0 103.5Q450 51 402.0 23.5Q354 -4 291 -4Q235 -4 189.5 17.0Q144 38 111.5 75.0Q79 112 61.0 162.0Q43 212 43 269V290Q43 347 61.5 396.5Q80 446 114.0 483.0Q148 520 195.0 540.0Q242 560 299 560Q366 560 415.5 531.0Q465 502 493.0 447.0Q521 392 524 312L500 308V543H610V64Q610 -35 576.0 -96.0Q542 -157 471.5 -185.5Q401 -214 291 -214ZM331 115Q371 115 404.0 133.0Q437 151 457.0 185.0Q477 219 477 267V302Q477 348 456.5 380.0Q436 412 403.0 428.5Q370 445 331 445Q287 445 253.5 424.5Q220 404 201.0 367.0Q182 330 182 279Q182 229 201.0 192.0Q220 155 253.5 135.0Q287 115 331 115Z"/><path transform="translate(19485,0)" d="M408 0V161H385V340Q385 387 362.0 410.0Q339 433 291 433Q266 433 231.0 432.0Q196 431 160.5 429.5Q125 428 97 426V544Q120 546 149.0 548.0Q178 550 208.5 550.5Q239 551 266 551Q350 551 405.5 529.0Q461 507 489.5 460.0Q518 413 518 337V0ZM233 -14Q174 -14 129.5 7.0Q85 28 60.5 67.0Q36 106 36 161Q36 221 65.5 259.0Q95 297 148.5 316.0Q202 335 274 335H400V252H272Q224 252 198.5 228.5Q173 205 173 168Q173 131 198.5 108.0Q224 85 272 85Q301 85 325.5 95.5Q350 106 366.5 131.5Q383 157 385 201L419 162Q414 105 391.5 66.0Q369 27 329.5 6.5Q290 -14 233 -14Z"/><path transform="translate(20079,0)" d="M291 -214Q252 -214 211.5 -211.0Q171 -208 136 -203V-87Q172 -91 213.0 -94.5Q254 -98 290 -98Q357 -98 398.5 -82.0Q440 -66 459.5 -31.5Q479 3 479 56V163L509 231Q506 156 478.0 103.5Q450 51 402.0 23.5Q354 -4 291 -4Q235 -4 189.5 17.0Q144 38 111.5 75.0Q79 112 61.0 162.0Q43 212 43 269V290Q43 347 61.5 396.5Q80 446 114.0 483.0Q148 520 195.0 540.0Q242 560 299 560Q366 560 415.5 531.0Q465 502 493.0 447.0Q521 392 524 312L500 308V543H610V64Q610 -35 576.0 -96.0Q542 -157 471.5 -185.5Q401 -214 291 -214ZM331 115Q371 115 404.0 133.0Q437 151 457.0 185.0Q477 219 477 267V302Q477 348 456.5 380.0Q436 412 403.0 428.5Q370 445 331 445Q287 445 253.5 424.5Q220 404 201.0 367.0Q182 330 182 279Q182 229 201.0 192.0Q220 155 253.5 135.0Q287 115 331 115Z"/><path transform="translate(20768,0)" d="M322 -19Q252 -19 199.5 5.0Q147 29 112.5 69.5Q78 110 60.5 160.0Q43 210 43 262V281Q43 335 60.5 385.5Q78 436 112.5 475.5Q147 515 198.0 538.5Q249 562 316 562Q404 562 463.5 523.5Q523 485 553.0 422.5Q583 360 583 288V238H102V323H496L453 281Q453 333 438.0 370.0Q423 407 392.5 427.0Q362 447 316 447Q270 447 238.0 426.0Q206 405 189.5 365.5Q173 326 173 271Q173 220 189.0 180.5Q205 141 238.0 118.5Q271 96 322 96Q373 96 405.0 116.5Q437 137 446 167H574Q562 111 528.0 69.0Q494 27 441.5 4.0Q389 -19 322 -19Z"/><path transform="translate(21394,0)" d="M79 0V543H189V310H179Q179 393 201.0 448.5Q223 504 266.5 532.0Q310 560 375 560H381Q478 560 528.0 497.5Q578 435 578 311V0H439V323Q439 373 410.5 404.0Q382 435 332 435Q281 435 249.5 403.5Q218 372 218 319V0Z"/><path transform="translate(22048,0)" d="M315 -7Q240 -7 191.5 12.5Q143 32 119.0 78.5Q95 125 95 204L96 696H226L225 195Q225 155 246.5 133.5Q268 112 308 112H393V-7ZM9 441V543H393V441Z"/><path transform="translate(22485,0)" d="M276 -17Q164 -17 100.5 30.5Q37 78 34 162H159Q162 134 190.0 111.0Q218 88 278 88Q328 88 357.5 106.0Q387 124 387 155Q387 182 364.5 198.0Q342 214 288 219L240 224Q149 234 100.0 276.0Q51 318 51 388Q51 444 79.0 482.0Q107 520 156.5 539.5Q206 559 270 559Q370 559 432.0 515.0Q494 471 497 386H372Q370 414 344.0 434.0Q318 454 269 454Q225 454 201.0 437.0Q177 420 177 393Q177 367 196.5 353.0Q216 339 260 334L308 329Q404 319 458.5 276.0Q513 233 513 160Q513 106 483.5 66.5Q454 27 401.0 5.0Q348 -17 276 -17Z"/></g></g></g></svg>
